<svg xmlns="http://www.w3.org/2000/svg" width="400" height="139.805" viewBox="0 0 400 139.805">
  <g id="Grupo_141749" data-name="Grupo 141749" transform="translate(-1020 -801.52)">
    <g id="Grupo_141748" data-name="Grupo 141748">
      <g id="Grupo_128878" data-name="Grupo 128878" transform="translate(1420 941.325) rotate(180)">
        <path id="Trazado_114975" data-name="Trazado 114975" d="M43.4,139.8H0L32.891,69.9,0,0H43.4L76.288,69.9Z" fill="#f0f8ff"/>
        <path id="Trazado_114976" data-name="Trazado 114976" d="M43.4,139.8H0L32.89,69.9,0,0H43.4l32.89,69.9Z" transform="translate(80.928)" fill="#f0f8ff"/>
        <path id="Trazado_114977" data-name="Trazado 114977" d="M43.4,139.8H0L32.89,69.9,0,0H43.4l32.89,69.9Z" transform="translate(161.856)" fill="#f0f8ff"/>
        <path id="Trazado_114978" data-name="Trazado 114978" d="M43.4,139.8H0L32.89,69.9,0,0H43.4l32.89,69.9Z" transform="translate(242.785 0)" fill="#f0f8ff"/>
        <path id="Trazado_114979" data-name="Trazado 114979" d="M43.4,139.8H0L32.89,69.9,0,0H43.4l32.89,69.9Z" transform="translate(323.712 0)" fill="#f0f8ff"/>
      </g>
    </g>
  </g>
</svg>
