<svg xmlns="http://www.w3.org/2000/svg" width="190" height="141" viewBox="0 0 190 141">
  <g id="Grupo_141759" data-name="Grupo 141759" transform="translate(-180 -3700.3)">
    <g id="Grupo_129451" data-name="Grupo 129451" transform="translate(370 3739.091) rotate(180)" opacity="0.2">
      <path id="Trazado_114977" data-name="Trazado 114977" d="M12.041,0H0L9.126,19.4,0,38.791H12.041l9.126-19.4Z" transform="translate(0 0)" fill="#d84318"/>
      <path id="Trazado_114978" data-name="Trazado 114978" d="M12.041,0H0L9.126,19.4,0,38.791H12.041l9.126-19.4Z" transform="translate(21.167 0)" fill="#d84318"/>
      <path id="Trazado_114979" data-name="Trazado 114979" d="M12.041,0H0L9.126,19.4,0,38.791H12.041l9.126-19.4Z" transform="translate(42.335 0)" fill="#d84318"/>
    </g>
    <g id="Grupo_129486" data-name="Grupo 129486" transform="translate(180 3802.509)" opacity="0.2">
      <path id="Trazado_114977-2" data-name="Trazado 114977" d="M12.041,0H0L9.126,19.4,0,38.791H12.041l9.126-19.4Z" transform="translate(0 0)" fill="#1b3f5e"/>
      <path id="Trazado_114978-2" data-name="Trazado 114978" d="M12.041,0H0L9.126,19.4,0,38.791H12.041l9.126-19.4Z" transform="translate(21.167 0)" fill="#1b3f5e"/>
      <path id="Trazado_114979-2" data-name="Trazado 114979" d="M12.041,0H0L9.126,19.4,0,38.791H12.041l9.126-19.4Z" transform="translate(42.335 0)" fill="#1b3f5e"/>
    </g>
    <g id="Grupo_141064" data-name="Grupo 141064" transform="translate(210.208 3683.609)">
      <g id="Grupo_141062" data-name="Grupo 141062" transform="translate(14.9 43.4)">
        <g id="Grupo_141061" data-name="Grupo 141061" transform="translate(2.35 1.711)">
          <g id="Grupo_141055" data-name="Grupo 141055" transform="translate(0 21.932)">
            <path id="Trazado_207503" data-name="Trazado 207503" d="M26.3,158.1v43.616l39.6,17.912v-44.77Z" transform="translate(-26.3 -158.1)" fill="#ddb484"/>
          </g>
          <g id="Grupo_141056" data-name="Grupo 141056" transform="translate(41.967 21.313)">
            <path id="Trazado_207504" data-name="Trazado 207504" d="M270.486,155.1v43.637L229.9,216.649l.35-44.028Z" transform="translate(-229.9 -155.1)" fill="#b18974"/>
          </g>
          <g id="Grupo_141057" data-name="Grupo 141057" transform="translate(1.134)">
            <path id="Trazado_207505" data-name="Trazado 207505" d="M31.8,71.529,71.726,51.7l40.483,19.438-40.483,18.1Z" transform="translate(-31.8 -51.7)" fill="#b18974"/>
          </g>
          <g id="Grupo_141059" data-name="Grupo 141059" transform="translate(13.254 24.735)">
            <g id="Grupo_141058" data-name="Grupo 141058">
              <path id="Trazado_207506" data-name="Trazado 207506" d="M90.6,171.7l.062,19.5a.69.69,0,0,0,1.175.495l4.865-4.679,4.638,9.4a.7.7,0,0,0,1.319-.309v-18.8Z" transform="translate(-90.6 -171.7)" fill="#fff59d"/>
            </g>
          </g>
          <g id="Grupo_141060" data-name="Grupo 141060" transform="translate(13.254 5.833)">
            <path id="Trazado_207507" data-name="Trazado 207507" d="M130.444,80,90.6,98.9l12.058,6.184L142.172,86Z" transform="translate(-90.6 -80)" fill="#fff59d"/>
          </g>
        </g>
        <path id="Trazado_207508" data-name="Trazado 207508" d="M68.554,48.368,58.165,43.4,14.9,64.26v46.563l43.41,20.159L101.7,110.823V64.2ZM71.275,52.9l8.781,4.246L43.819,74.36l-2.865-1.319-6.8-3.3ZM41.1,77.988V90.953l-2.783-5.648a2.139,2.139,0,0,0-1.525-1.154,2.242,2.242,0,0,0-.371-.021,2.075,2.075,0,0,0-1.463.6l-2.927,2.8-.041-13.645ZM58.186,46.636l9.729,4.638L30.545,68.856a1.7,1.7,0,0,0-.515.247l-.021.021-.412.206-9.131-3.958Zm-1.608,79.749L17.827,108.948V67.558l11.234,5.029.062,16.84a2.11,2.11,0,0,0,1.3,1.938,2.088,2.088,0,0,0,2.288-.433l3.483-3.36,3.834,7.75a2.093,2.093,0,0,0,1.9,1.175,2.033,2.033,0,0,0,.495-.062,2.1,2.1,0,0,0,1.628-2.061V79.245L56.6,84.872v41.513ZM58.31,82.234,46.045,77.143,83.457,58.736l13.027,6.225Zm40.483,26.734L60.041,126.406V84.913L98.793,67.558Z" transform="translate(-14.9 -43.4)" fill="#12263f"/>
      </g>
      <path id="Trazado_207511" data-name="Trazado 207511" d="M23.746,0A23.739,23.739,0,1,1,4,10.551,23.746,23.746,0,0,1,23.746,0Z" transform="translate(65.38 81.203)" fill="#f0f8ff"/>
      <g id="Grupo_141063" data-name="Grupo 141063" transform="translate(63.566 79.41)">
        <path id="Trazado_207509" data-name="Trazado 207509" d="M276.559,218.1a25.559,25.559,0,1,0,25.559,25.559A25.581,25.581,0,0,0,276.559,218.1Zm0,47.491a21.942,21.942,0,1,1,21.952-21.952A21.984,21.984,0,0,1,276.559,265.591Z" transform="translate(-251 -218.1)" fill="#12263f"/>
        <path id="Trazado_207510" data-name="Trazado 207510" d="M329.741,301.061,315.7,315.1l-5.071-6.122a2.4,2.4,0,1,0-3.69,3.071l8.431,10.183,17.768-17.768a2.4,2.4,0,0,0-3.4-3.4Z" transform="translate(-294.967 -283.396)" fill="#12263f"/>
      </g>
    </g>
  </g>
</svg>
