<svg xmlns="http://www.w3.org/2000/svg" width="131.326" height="132.379" viewBox="0 0 131.326 132.379">
  <g id="Grupo_141784" data-name="Grupo 141784" transform="translate(-2028.955 3484.524)">
    <g id="Grupo_141148" data-name="Grupo 141148" transform="translate(2027.645 -3485.654)">
      <path id="Trazado_207618" data-name="Trazado 207618" d="M19.68,3.9A58.2,58.2,0,0,0,77.887,62.109a57.993,57.993,0,0,0,22.2-4.407V1.13H19.819C19.791,2.045,19.68,2.959,19.68,3.9Z" transform="translate(32.547 0)" fill="#f0f8ff"/>
      <g id="Grupo_141147" data-name="Grupo 141147" transform="translate(1.31 1.795)">
        <path id="Trazado_207619" data-name="Trazado 207619" d="M73.222,22.654a6.769,6.769,0,0,0-4.435-1.968,6.984,6.984,0,0,0-7.123,7.123v21.7a6.635,6.635,0,0,0-1.829-3.3,6.784,6.784,0,0,0-9.59,0L36.108,60.35A15.442,15.442,0,0,0,31.59,71.271v17.24H54.623V80.5L72.335,62.817a9.909,9.909,0,0,0,2.91-6.985V27.45A7.138,7.138,0,0,0,73.222,22.654Z" transform="translate(52.339 32.836)" fill="#ff9d9c"/>
        <rect id="Rect치ngulo_41699" data-name="Rect치ngulo 41699" width="33.261" height="8.26" transform="translate(79.244 121.32)" fill="#d84318"/>
        <path id="Trazado_207620" data-name="Trazado 207620" d="M41.142,60.34,27.006,46.2a6.784,6.784,0,0,0-9.59,0,6.877,6.877,0,0,0-1.829,3.3V27.8a7,7,0,0,0-7.123-7.123,6.733,6.733,0,0,0-6.4,6.763V55.795a9.86,9.86,0,0,0,2.91,6.985L22.682,80.463v8.01H45.715V71.233A15.549,15.549,0,0,0,41.142,60.34Z" transform="translate(0.019 32.818)" fill="#ff9d9c"/>
        <rect id="Rect치ngulo_41700" data-name="Rect치ngulo 41700" width="33.261" height="8.26" transform="translate(50.352 129.601) rotate(180)" fill="#d84318"/>
        <path id="Trazado_207628" data-name="Trazado 207628" d="M39.054,0A39.054,39.054,0,1,1,0,39.054,39.054,39.054,0,0,1,39.054,0Z" transform="translate(25.75 2.107)" fill="#fff59d"/>
        <path id="Trazado_207621" data-name="Trazado 207621" d="M42.567,62.082A27.981,27.981,0,1,1,70.534,34.087,28.012,28.012,0,0,1,42.567,62.082Z" transform="translate(22.237 7.046)" fill="#fff59d"/>
        <g id="Grupo_141146" data-name="Grupo 141146">
          <path id="Trazado_207622" data-name="Trazado 207622" d="M79,22.514a8.715,8.715,0,0,0-12.2-.194,9.46,9.46,0,0,0-2.938,6.819V44.716a8.862,8.862,0,0,0-4.518-1.247h0a8.739,8.739,0,0,0-6.264,2.605L38.944,60.21a17.372,17.372,0,0,0-5.128,12.417V87.789H31.239a2.094,2.094,0,0,0-2.079,2.079v8.26a2.094,2.094,0,0,0,2.079,2.079H64.5a2.094,2.094,0,0,0,2.079-2.079v-8.26A2.094,2.094,0,0,0,64.5,87.789H61.007V82.717L78.081,65.643a11.822,11.822,0,0,0,3.52-8.454V28.778A8.786,8.786,0,0,0,79,22.514ZM62.421,95.993h-29.1v-4.1h29.1Zm15.023-38.86a7.67,7.67,0,0,1-2.3,5.516L57.46,80.333a2.077,2.077,0,0,0-.61,1.469v5.932H37.974V72.572A13.182,13.182,0,0,1,41.91,63.12L56.046,48.984a4.684,4.684,0,0,1,6.652,0,4.885,4.885,0,0,1,1.109,1.857,5.1,5.1,0,0,1-.721,1.386,5.9,5.9,0,0,1-.527.61L52.027,65.7a2.1,2.1,0,0,0,.277,2.938,2.166,2.166,0,0,0,1.33.471,2.062,2.062,0,0,0,1.608-.748L65.636,55.664a8.254,8.254,0,0,0,.8-.915,8.418,8.418,0,0,0,1.469-3.1c.028-.055.028-.083.055-.139l.083-.249c.028-.055,0-.139,0-.194,0-.083.055-.166.055-.222v-21.7a5.246,5.246,0,0,1,1.635-3.8,4.476,4.476,0,0,1,3.326-1.247,4.628,4.628,0,0,1,3.049,1.358A4.749,4.749,0,0,1,77.5,28.778V57.133Z" transform="translate(48.033 31.508)" fill="#12263f"/>
          <path id="Trazado_207623" data-name="Trazado 207623" d="M51.673,87.758H49.1V72.6a17.535,17.535,0,0,0-5.128-12.417L29.831,46.043a8.854,8.854,0,0,0-6.264-2.605h-.028a8.862,8.862,0,0,0-4.518,1.247V29.135a9.507,9.507,0,0,0-2.938-6.819,8.451,8.451,0,0,0-6.375-2.384,8.87,8.87,0,0,0-8.4,8.87V57.157A11.91,11.91,0,0,0,4.8,65.611L21.9,82.685v5.072h-3.52a2.094,2.094,0,0,0-2.079,2.079V98.1a2.094,2.094,0,0,0,2.079,2.079H51.645A2.094,2.094,0,0,0,53.724,98.1v-8.26A2.052,2.052,0,0,0,51.673,87.758ZM25.452,80.385,7.768,62.7a7.783,7.783,0,0,1-2.3-5.516V28.8a4.793,4.793,0,0,1,1.358-3.326A4.654,4.654,0,0,1,9.9,24.09a4.476,4.476,0,0,1,3.326,1.247,5.262,5.262,0,0,1,1.635,3.8v21.7a.652.652,0,0,0,.055.222v.194L15,51.5c0,.028.028.083.028.111a8.418,8.418,0,0,0,1.469,3.1,8.069,8.069,0,0,0,.665.776L27.7,68.355A2.062,2.062,0,0,0,29.3,69.1a2.166,2.166,0,0,0,1.33-.471,2.072,2.072,0,0,0,.277-2.938L20.241,52.667c-.139-.139-.277-.3-.416-.471a4.335,4.335,0,0,1-.693-1.386,4.847,4.847,0,0,1,1.109-1.885,4.636,4.636,0,0,1,3.3-1.386h0a4.7,4.7,0,0,1,3.326,1.386L41,63.061a13.317,13.317,0,0,1,3.908,9.452V87.674H26.034V81.743A1.872,1.872,0,0,0,25.452,80.385ZM49.594,96.017H20.463v-4.1h29.1v4.1Z" transform="translate(-1.31 31.483)" fill="#12263f"/>
          <path id="Trazado_207624" data-name="Trazado 207624" d="M12.536,12.923a2.363,2.363,0,0,0,.97.222,2.072,2.072,0,1,0-1.857-3.021v.028a2.01,2.01,0,0,0-.139,1.552A2.036,2.036,0,0,0,12.536,12.923Z" transform="translate(16.595 12.161)" fill="#505050"/>
          <path id="Trazado_207625" data-name="Trazado 207625" d="M92.116,42.5A41.125,41.125,0,0,0,17.472,18.666a2.107,2.107,0,0,0,.471,2.91,2.139,2.139,0,0,0,2.91-.5,36.944,36.944,0,1,1-4.8,9.285A2.082,2.082,0,0,0,12.123,29,41.139,41.139,0,1,0,92.116,42.5Z" transform="translate(13.821 -1.37)" fill="#12263f"/>
          <path id="Trazado_207626" data-name="Trazado 207626" d="M43.9,65.489A30.06,30.06,0,1,0,13.85,35.416,30.07,30.07,0,0,0,43.9,65.489Zm0-55.962A25.888,25.888,0,1,1,18.008,35.416,25.918,25.918,0,0,1,43.9,9.528Z" transform="translate(20.908 5.717)" fill="#12263f"/>
          <path id="Trazado_207627" data-name="Trazado 207627" d="M29.917,37.454A4.022,4.022,0,0,1,25.9,33.434a2.079,2.079,0,0,0-4.158,0,8.2,8.2,0,0,0,6.1,7.872v1.358a2.079,2.079,0,0,0,4.158,0V41.306a8.156,8.156,0,0,0-2.079-16.048,4.019,4.019,0,1,1,4.019-4.019,2.079,2.079,0,1,0,4.158,0A8.2,8.2,0,0,0,32,13.367V12.009a2.079,2.079,0,0,0-4.158,0v1.358a8.156,8.156,0,0,0,2.079,16.048,4.019,4.019,0,1,1,0,8.038Z" transform="translate(34.887 13.796)" fill="#12263f"/>
        </g>
      </g>
    </g>
  </g>
</svg>
