<svg xmlns="http://www.w3.org/2000/svg" width="134" height="136.951" viewBox="0 0 134 136.951">
  <g id="Grupo_141781" data-name="Grupo 141781" transform="translate(-2028 4489.524)">
    <g id="Grupo_141129" data-name="Grupo 141129" transform="translate(2026.361 -4490.654)">
      <path id="Trazado_207577" data-name="Trazado 207577" d="M18.33,19.228a60.222,60.222,0,0,0,60.23,60.23,59.8,59.8,0,0,0,25.9-5.908V1.13H21.112A59.867,59.867,0,0,0,18.33,19.228Z" transform="translate(31.18 0)" fill="#f0f8ff"/>
      <g id="Grupo_141128" data-name="Grupo 141128" transform="translate(1.639 1.818)">
        <circle id="Elipse_5404" data-name="Elipse 5404" cx="12.448" cy="12.448" r="12.448" transform="translate(14.401 77.066)" fill="#fff"/>
        <path id="Trazado_207578" data-name="Trazado 207578" d="M51.789,63.224a24.744,24.744,0,0,0-49.389,0H51.789Z" transform="translate(-0.218 70.888)" fill="#d84318"/>
        <circle id="Elipse_5405" data-name="Elipse 5405" cx="12.448" cy="12.448" r="12.448" transform="translate(91.065 77.066)" fill="#fff"/>
        <path id="Trazado_207579" data-name="Trazado 207579" d="M78.509,63.224a24.744,24.744,0,0,0-49.389,0H78.509Z" transform="translate(49.698 70.888)" fill="#d84318"/>
        <g id="Grupo_141125" data-name="Grupo 141125" transform="translate(13.626 2.18)">
          <path id="Trazado_207580" data-name="Trazado 207580" d="M68.083,17.044V2.13H6.39V39.673h8.834v13.48l11.53-13.48H37.222" transform="translate(-6.39 -2.13)" fill="#d84318"/>
        </g>
        <g id="Grupo_141126" data-name="Grupo 141126" transform="translate(44.458 17.094)">
          <path id="Trazado_207581" data-name="Trazado 207581" d="M78.861,7.33V44.873H70.028v13.48L58.5,44.873H17.14V7.33Z" transform="translate(-17.14 -7.33)" fill="#fff59d"/>
        </g>
        <g id="Grupo_141127" data-name="Grupo 141127">
          <path id="Trazado_207582" data-name="Trazado 207582" d="M5.91,42.089a14.6,14.6,0,1,0,14.6-14.6A14.6,14.6,0,0,0,5.91,42.089Zm24.9,0a10.3,10.3,0,1,1-10.3-10.3A10.306,10.306,0,0,1,30.805,42.089Z" transform="translate(6.339 47.425)" fill="#12263f"/>
          <path id="Trazado_207583" data-name="Trazado 207583" d="M28.487,39.29A26.963,26.963,0,0,0,1.642,64.5a2.158,2.158,0,0,0,2.151,2.294H53.21A2.158,2.158,0,0,0,55.361,64.5,27.009,27.009,0,0,0,28.487,39.29ZM6.2,62.464a22.594,22.594,0,0,1,44.57,0H6.2Z" transform="translate(-1.639 69.468)" fill="#12263f"/>
          <path id="Trazado_207584" data-name="Trazado 207584" d="M32.64,42.089a14.6,14.6,0,1,0,14.6-14.6A14.6,14.6,0,0,0,32.64,42.089Zm24.9,0a10.3,10.3,0,1,1-10.3-10.3A10.306,10.306,0,0,1,57.535,42.089Z" transform="translate(56.273 47.425)" fill="#12263f"/>
          <path id="Trazado_207585" data-name="Trazado 207585" d="M55.217,39.29A26.963,26.963,0,0,0,28.372,64.5a2.158,2.158,0,0,0,2.151,2.294H79.94A2.158,2.158,0,0,0,82.091,64.5,27.029,27.029,0,0,0,55.217,39.29ZM32.9,62.464a22.594,22.594,0,0,1,44.57,0H32.9Z" transform="translate(48.295 69.468)" fill="#12263f"/>
          <circle id="Elipse_5406" data-name="Elipse 5406" cx="2.151" cy="2.151" r="2.151" transform="translate(42.336 25.153)" fill="#12263f"/>
          <path id="Trazado_207586" data-name="Trazado 207586" d="M7.791,43.244h6.683V54.573a2.155,2.155,0,0,0,3.786,1.405l10.9-12.734H36.5V56.036a2.154,2.154,0,0,0,2.151,2.151H79.006l10.87,12.734a2.141,2.141,0,0,0,1.635.746,1.65,1.65,0,0,0,.746-.143,2.1,2.1,0,0,0,1.405-2.008V58.187h6.683a2.154,2.154,0,0,0,2.151-2.151V18.464a2.154,2.154,0,0,0-2.151-2.151H71.663V3.521A2.167,2.167,0,0,0,69.512,1.37H7.791A2.167,2.167,0,0,0,5.64,3.521V41.064A2.173,2.173,0,0,0,7.791,43.244ZM9.942,5.672h57.39V16.313H38.652a2.149,2.149,0,0,0-1.52.631,2.1,2.1,0,0,0-.631,1.52v4.474a2.151,2.151,0,1,0,4.3,0V20.615h57.39V53.856H91.511a2.2,2.2,0,0,0-1.52.631,2.149,2.149,0,0,0-.631,1.52v7.658L81.616,54.6a2.1,2.1,0,0,0-1.635-.746H40.8V34.41a2.151,2.151,0,1,0-4.3,0v4.5H28.155a2.2,2.2,0,0,0-1.635.746l-7.744,9.063V41.064a2.167,2.167,0,0,0-2.151-2.151H9.942Z" transform="translate(5.835 -1.37)" fill="#12263f"/>
          <path id="Trazado_207587" data-name="Trazado 207587" d="M22.271,14.572H62.6a2.151,2.151,0,0,0,0-4.3H22.271a2.151,2.151,0,1,0,0,4.3Z" transform="translate(32.885 15.256)" fill="#12263f"/>
          <path id="Trazado_207588" data-name="Trazado 207588" d="M22.271,17.662H62.6a2.151,2.151,0,0,0,0-4.3H22.271a2.151,2.151,0,1,0,0,4.3Z" transform="translate(32.885 21.028)" fill="#12263f"/>
          <path id="Trazado_207589" data-name="Trazado 207589" d="M22.271,20.762H47.223a2.151,2.151,0,1,0,0-4.3H22.271a2.151,2.151,0,1,0,0,4.3Z" transform="translate(32.885 26.819)" fill="#12263f"/>
        </g>
      </g>
    </g>
  </g>
</svg>
