<svg xmlns="http://www.w3.org/2000/svg" width="57.701" height="55.136" viewBox="0 0 57.701 55.136">
  <g id="Grupo_141770" data-name="Grupo 141770" transform="translate(-320.3 -2728)">
    <g id="Grupo_141769" data-name="Grupo 141769">
      <g id="positive-deal" transform="translate(318.3 2724)">
        <circle id="Elipse_5395" data-name="Elipse 5395" cx="21.67" cy="21.67" r="21.67" transform="translate(5.826 9.711)" fill="#d84318"/>
        <path id="Trazado_207540" data-name="Trazado 207540" d="M34.836,54.506l1.065.641a2.591,2.591,0,0,0,3.392-.565,2.5,2.5,0,0,0-.7-3.627h0l1.291.773a2.582,2.582,0,0,0,3.392-.565,2.487,2.487,0,0,0-.707-3.665l1.3.773a2.582,2.582,0,0,0,3.392-.565,2.487,2.487,0,0,0-.716-3.627l-.415-.254,1.149-1.036L43.2,36.614l-11.617-9.13-1.46-1.244a9.073,9.073,0,0,0-9.591-1.357h0a8.743,8.743,0,0,1-4.645.688l-4.221-.528L7.711,23,3,34.306l3.684,3.137,6.68,8.3L28.288,56.108,30.85,57.86l1.187.763a2.5,2.5,0,0,0,3.42-.848h0a2.5,2.5,0,0,0-.857-3.42l-1.451-.839" transform="translate(0 -1.041)" fill="#bf7e68"/>
        <path id="Trazado_207540_-_Contorno" data-name="Trazado 207540 - Contorno" d="M33.314,59.977a3.471,3.471,0,0,1-1.791-.5l-.026-.016L30.31,58.7l-.024-.016-2.563-1.752-.006,0L12.793,46.565a1,1,0,0,1-.209-.194L5.964,38.144,2.352,35.067a1,1,0,0,1-.275-1.146L6.788,22.615a1,1,0,0,1,1.382-.5l3.8,1.963,4.044.506a7.744,7.744,0,0,0,4.114-.609,10.073,10.073,0,0,1,10.645,1.508l1.447,1.232,11.6,9.117a1,1,0,0,1,.216.235l4.08,6.171a1,1,0,0,1-.165,1.294l-.227.2a3.487,3.487,0,0,1,.339,4.57l-.021.027A3.58,3.58,0,0,1,44.8,49.64a3.489,3.489,0,0,1-.728,2.133l-.012.015A3.58,3.58,0,0,1,40.79,53.1a3.5,3.5,0,0,1-.7,2.085l-.023.029a3.593,3.593,0,0,1-3.26,1.3,3.473,3.473,0,0,1-.493,1.776l0,.005A3.5,3.5,0,0,1,33.314,59.977Zm-.75-2.2a1.489,1.489,0,0,0,1.527-2.557l-1.442-.834a1,1,0,1,1,1-1.732l1.451.839.015.009q.106.063.205.133l.031.018,1.065.641.016.01a1.592,1.592,0,0,0,2.071-.333,1.5,1.5,0,0,0-.429-2.16A1,1,0,0,1,39.109,50.1l1.291.773.021.013a1.581,1.581,0,0,0,2.072-.339,1.487,1.487,0,0,0-.415-2.177l-.017-.01a1,1,0,0,1,1.018-1.722l0,0h0l.018.011,1.282.762.023.014a1.581,1.581,0,0,0,2.067-.333,1.487,1.487,0,0,0-.438-2.156l-.011-.006-.415-.254a1,1,0,0,1-.147-1.6l.51-.46L42.457,37.3l-11.49-9.03-.03-.025L29.477,27A8.111,8.111,0,0,0,20.944,25.8a9.746,9.746,0,0,1-5.18.768l-4.22-.528a1,1,0,0,1-.335-.1L8.216,24.387,4.2,34.017l3.129,2.665a1,1,0,0,1,.131.134L14.053,45l14.8,10.279L31.4,57.027Z" transform="translate(0 -1.041)" fill="#12263f"/>
        <path id="Elipse_5396" data-name="Elipse 5396" d="M2.355-1A3.355,3.355,0,1,1-1,2.355,3.359,3.359,0,0,1,2.355-1Zm0,4.711A1.355,1.355,0,1,0,1,2.355,1.357,1.357,0,0,0,2.355,3.711Z" transform="translate(50.108 51.166)" fill="#12263f"/>
        <path id="Trazado_207541" data-name="Trazado 207541" d="M57.946,16.942A1.008,1.008,0,1,1,56.938,16,1.008,1.008,0,0,1,57.946,16.942Z" transform="translate(-3.061 -0.636)" fill="#12263f"/>
        <path id="Trazado_207542" data-name="Trazado 207542" d="M52.318,22.12,59.79,37.082,48.484,44.063l-13.3-6.981c-1.621-.49-3.034-1.771-3.345-4.626L25,33.077A2.892,2.892,0,0,1,21.981,31.1h0a2.892,2.892,0,0,1,1.884-3.684l9.93-3.137a6.322,6.322,0,0,1,5.606.9l.358.254a5.889,5.889,0,0,0,6.03.471h0Z" transform="translate(-1.089 -0.99)" fill="#ffe8dc"/>
        <path id="Trazado_207542_-_Contorno" data-name="Trazado 207542 - Contorno" d="M52.318,21.12a1,1,0,0,1,.895.553l7.471,14.962a1,1,0,0,1-.369,1.3L49.009,44.914a1,1,0,0,1-.99.035L34.8,38.009A5.543,5.543,0,0,1,31,33.536l-5.91.537c-.118.011-.239.017-.359.017a3.9,3.9,0,0,1-1.162-7.629l9.928-3.137a7.321,7.321,0,0,1,6.489,1.035l.355.253a4.863,4.863,0,0,0,2.83.9,4.914,4.914,0,0,0,2.149-.5l6.5-3.761A1,1,0,0,1,52.318,21.12Zm6.168,15.591L51.9,23.518,46.29,26.764l-.056.03a6.923,6.923,0,0,1-3.066.72,6.853,6.853,0,0,1-3.988-1.271l-.358-.255-.005,0a5.322,5.322,0,0,0-4.719-.753l-9.932,3.138,0,0a1.892,1.892,0,0,0-1.233,2.41l0,.007a1.887,1.887,0,0,0,1.8,1.3c.058,0,.118,0,.176-.008l6.842-.622a1,1,0,0,1,1.085.888c.226,2.073,1.089,3.308,2.64,3.777a1,1,0,0,1,.175.072l12.8,6.716Z" transform="translate(-1.089 -0.99)" fill="#12263f"/>
        <path id="Trazado_207543" data-name="Trazado 207543" d="M41.794,37.45a11.023,11.023,0,0,1-4.928.66L36,37.968" transform="translate(-1.909 -1.877)" fill="#12263f"/>
        <path id="Trazado_207543_-_Contorno" data-name="Trazado 207543 - Contorno" d="M37.894,39.158q-.562,0-1.121-.053l-.067-.009-.867-.141a1,1,0,1,1,.322-1.974l.833.136a10.08,10.08,0,0,0,4.448-.6,1,1,0,1,1,.706,1.871A12.1,12.1,0,0,1,37.894,39.158Z" transform="translate(-1.909 -1.877)" fill="#12263f"/>
        <path id="Trazado_207544" data-name="Trazado 207544" d="M12.755,49.087h0a2.5,2.5,0,0,1,0-3.524l1.178-1.178a2.5,2.5,0,0,1,3.524,0h0a2.5,2.5,0,0,1,0,3.524l-1.178,1.178a2.5,2.5,0,0,1-3.524,0Z" transform="translate(-0.522 -2.236)" fill="#ffe8dc"/>
        <path id="Trazado_207544_-_Contorno" data-name="Trazado 207544 - Contorno" d="M14.517,50.814a3.49,3.49,0,0,1-2.47-5.957l1.179-1.179a3.492,3.492,0,0,1,4.939,4.936l-1.179,1.179A3.476,3.476,0,0,1,14.517,50.814Zm1.178-6.157a1.487,1.487,0,0,0-1.056.436L13.462,46.27a1.492,1.492,0,0,0,2.111,2.108L16.75,47.2a1.49,1.49,0,0,0-1.055-2.544Z" transform="translate(-0.522 -2.236)" fill="#12263f"/>
        <path id="Trazado_207545" data-name="Trazado 207545" d="M16.5,52.745h0a2.487,2.487,0,0,1,0-3.514l2.318-2.346a2.478,2.478,0,0,1,3.524,0h0a2.487,2.487,0,0,1,0,3.514l-2.346,2.346A2.478,2.478,0,0,1,16.5,52.745Z" transform="translate(-0.738 -2.38)" fill="#ffe8dc"/>
        <path id="Trazado_207545_-_Contorno" data-name="Trazado 207545 - Contorno" d="M18.243,54.466a3.456,3.456,0,0,1-2.453-1.012,3.493,3.493,0,0,1-.005-4.927L18.1,46.182a3.488,3.488,0,1,1,4.943,4.924L20.7,53.452A3.457,3.457,0,0,1,18.243,54.466Zm2.332-7.317a1.487,1.487,0,0,0-1.051.439l-2.317,2.346,0,0a1.49,1.49,0,0,0,0,2.1,1.478,1.478,0,0,0,2.082,0l2.344-2.344a1.493,1.493,0,0,0-1.055-2.543Z" transform="translate(-0.738 -2.38)" fill="#12263f"/>
        <path id="Trazado_207546" data-name="Trazado 207546" d="M20.235,56.413h0a2.5,2.5,0,0,1,0-3.524l3.5-3.514a2.5,2.5,0,0,1,3.524,0h0a2.487,2.487,0,0,1,0,3.514L23.74,56.413a2.487,2.487,0,0,1-3.5,0Z" transform="translate(-0.955 -2.524)" fill="#ffe8dc"/>
        <path id="Trazado_207546_-_Contorno" data-name="Trazado 207546 - Contorno" d="M21.988,58.135a3.466,3.466,0,0,1-2.457-1.013l0,0a3.5,3.5,0,0,1,0-4.935l3.505-3.515a3.488,3.488,0,1,1,4.94,4.927L24.447,57.12A3.468,3.468,0,0,1,21.988,58.135Zm-1.046-2.43a1.487,1.487,0,0,0,2.094,0l3.521-3.521a1.488,1.488,0,0,0-2.111-2.1l-3.5,3.512A1.5,1.5,0,0,0,20.942,55.705Z" transform="translate(-0.955 -2.524)" fill="#12263f"/>
        <path id="Trazado_207547" data-name="Trazado 207547" d="M23.955,60.08h0a2.5,2.5,0,0,1,0-3.524l4.711-4.711a2.487,2.487,0,0,1,3.514,0h0a2.478,2.478,0,0,1,0,3.524L27.47,60.08A2.5,2.5,0,0,1,23.955,60.08Z" transform="translate(-1.17 -2.667)" fill="#ffe8dc"/>
        <path id="Trazado_207547_-_Contorno" data-name="Trazado 207547 - Contorno" d="M25.712,61.8a3.475,3.475,0,0,1-2.461-1.013l0,0a3.5,3.5,0,0,1,0-4.935l4.712-4.712a3.488,3.488,0,1,1,4.928,4.939l-4.71,4.71A3.478,3.478,0,0,1,25.712,61.8Zm-1.051-2.431a1.5,1.5,0,0,0,2.1,0l4.707-4.708,0,0a1.488,1.488,0,0,0-2.1-2.1l-4.71,4.71A1.5,1.5,0,0,0,24.662,59.372Z" transform="translate(-1.17 -2.667)" fill="#12263f"/>
        <path id="Trazado_207548" data-name="Trazado 207548" d="M34,54.76l3.769,2.073a2.5,2.5,0,0,0,3.42-.857h0a2.5,2.5,0,0,0-.857-3.42L37.5,50.85" transform="translate(-1.793 -2.652)" fill="#bf7e68"/>
        <path id="Trazado_207548_-_Contorno" data-name="Trazado 207548 - Contorno" d="M39.041,58.184a3.471,3.471,0,0,1-1.769-.483l-3.754-2.065a1,1,0,0,1,.964-1.752l3.769,2.073.031.018a1.493,1.493,0,1,0,1.535-2.562l-2.828-1.706a1,1,0,0,1,1.033-1.712L40.848,51.7a3.491,3.491,0,0,1-1.807,6.485Z" transform="translate(-1.793 -2.652)" fill="#12263f"/>
        <path id="Trazado_207549" data-name="Trazado 207549" d="M40.46,46.056l5.653,3.411a2.487,2.487,0,0,0,3.458-.886h0a2.478,2.478,0,0,0-.857-3.411L43.06,41.76" transform="translate(-2.167 -2.126)" fill="#bf7e68"/>
        <path id="Trazado_207549_-_Contorno" data-name="Trazado 207549 - Contorno" d="M47.417,50.832a3.505,3.505,0,0,1-1.824-.51l-5.65-3.409A1,1,0,1,1,40.977,45.2l5.653,3.411.006,0a1.487,1.487,0,0,0,2.068-.53l.012-.02a1.478,1.478,0,0,0-.511-2.034l-.006,0-5.653-3.411A1,1,0,0,1,43.577,40.9l5.651,3.409a3.512,3.512,0,0,1-1.811,6.519Z" transform="translate(-2.167 -2.126)" fill="#12263f"/>
        <circle id="Elipse_5397" data-name="Elipse 5397" cx="5.653" cy="5.653" r="5.653" transform="translate(24.67 5)" fill="#fff59d"/>
        <path id="Elipse_5397_-_Contorno" data-name="Elipse 5397 - Contorno" d="M5.653-1A6.653,6.653,0,1,1-1,5.653,6.661,6.661,0,0,1,5.653-1Zm0,11.306A4.653,4.653,0,1,0,1,5.653,4.658,4.658,0,0,0,5.653,10.306Z" transform="translate(24.67 5)" fill="#12263f"/>
        <path id="Trazado_207550" data-name="Trazado 207550" d="M30,11.826l1.413.942L33.769,9" transform="translate(-1.562 -0.231)" fill="#a9ba5a"/>
        <path id="Trazado_207550_-_Contorno" data-name="Trazado 207550 - Contorno" d="M31.413,13.769a1,1,0,0,1-.555-.168l-1.413-.942a1,1,0,1,1,1.109-1.664l.556.371,1.81-2.9a1,1,0,0,1,1.7,1.06L32.261,13.3a1,1,0,0,1-.848.47Z" transform="translate(-1.562 -0.231)" fill="#12263f"/>
      </g>
    </g>
  </g>
</svg>
