<svg xmlns="http://www.w3.org/2000/svg" width="400" height="139.805" viewBox="0 0 400 139.805">
  <g id="Grupo_141772" data-name="Grupo 141772" transform="translate(1232 7241)">
    <g id="Grupo_141771" data-name="Grupo 141771" transform="translate(-1460.863 -7241)">
      <path id="Trazado_114975" data-name="Trazado 114975" d="M812.618,386.058h-43.4l32.891,69.9-32.891,69.9h43.4l32.89-69.9Z" transform="translate(-540.358 -386.057)" fill="#fffcdd"/>
      <path id="Trazado_114976" data-name="Trazado 114976" d="M828.9,386.058h-43.4l32.89,69.9-32.89,69.9h43.4l32.89-69.9Z" transform="translate(-475.715 -386.057)" fill="#fffcdd"/>
      <path id="Trazado_114977" data-name="Trazado 114977" d="M845.189,386.058h-43.4l32.89,69.9-32.89,69.9h43.4l32.89-69.9Z" transform="translate(-411.072 -386.057)" fill="#fffcdd"/>
      <path id="Trazado_114978" data-name="Trazado 114978" d="M861.475,386.058h-43.4l32.89,69.9-32.89,69.9h43.4l32.89-69.9Z" transform="translate(-346.429 -386.057)" fill="#fffcdd"/>
      <path id="Trazado_114979" data-name="Trazado 114979" d="M877.76,386.058h-43.4l32.89,69.9-32.89,69.9h43.4l32.89-69.9Z" transform="translate(-281.786 -386.057)" fill="#fffcdd"/>
    </g>
  </g>
</svg>
