<svg xmlns="http://www.w3.org/2000/svg" width="76.888" height="73.74" viewBox="0 0 76.888 73.74">
  <g id="Grupo_141813" data-name="Grupo 141813" transform="translate(6596.883 12113.425)">
    <g id="Grupo_141237" data-name="Grupo 141237" transform="translate(-6596.883 -12113.425)">
      <g id="g6524" transform="translate(14.262 13.486)">
        <path id="path6526" d="M2756.592-2203.193l15.63-9.082-.063,23.5-15.634,9.085.067-23.5" transform="translate(-2756.525 2212.275)" fill="#99935e"/>
      </g>
      <g id="g6528" transform="translate(0.068 5.254)">
        <path id="path6530" d="M2674.208-2250.937l15.631-9.082,14.26,8.232-15.631,9.082-14.26-8.232" transform="translate(-2674.208 2260.019)" fill="#ccc47d"/>
      </g>
      <g id="g6532" transform="translate(0 14.335)">
        <path id="path6534" d="M2688.142-2199.122l-.067,23.5-14.261-8.236.067-23.5,14.26,8.233" transform="translate(-2673.814 2207.355)" fill="#fff59d"/>
      </g>
      <g id="g6548" transform="translate(37.034 11.82)">
        <path id="path6550" d="M2888.706-2212.855l15.632-9.085-.11,38.908-15.632,9.082.11-38.905" transform="translate(-2888.596 2221.941)" fill="#c0c6cc"/>
      </g>
      <g id="g6552" transform="translate(22.884 3.59)">
        <path id="path6554" d="M2806.529-2260.592l15.635-9.081,14.258,8.23-15.632,9.085-14.261-8.234" transform="translate(-2806.529 2269.673)" fill="#909599"/>
      </g>
      <g id="g6556" transform="translate(22.772 12.674)">
        <path id="path6558" d="M2820.25-2208.757l-.11,38.907-14.261-8.233.11-38.907,14.261,8.234" transform="translate(-2805.878 2216.991)" fill="#f0f8ff"/>
      </g>
      <g id="g6564" transform="translate(61.097 8.224)">
        <path id="path6566" d="M3028.3-2233.71l15.63-9.085-.159,56.433-15.633,9.083.161-56.43" transform="translate(-3028.144 2242.796)" fill="#81280e"/>
      </g>
      <g id="g6568" transform="translate(47.008)">
        <path id="path6570" d="M2946.437-2281.406l15.636-9.085,14.244,8.224-15.63,9.085-14.25-8.224" transform="translate(-2946.437 2290.491)" fill="#ac3513"/>
      </g>
      <g id="g6572" transform="translate(46.851 9.082)">
        <path id="path6574" d="M2959.931-2229.59l-.16,56.428-14.246-8.222.16-56.434,14.246,8.228" transform="translate(-2945.525 2237.818)" fill="#d84318"/>
      </g>
    </g>
  </g>
</svg>
