<svg xmlns="http://www.w3.org/2000/svg" width="137.961" height="100.719" viewBox="0 0 137.961 100.719">
  <g id="Grupo_141811" data-name="Grupo 141811" transform="translate(7472.29 11954.904)">
    <g id="Grupo_141211" data-name="Grupo 141211" transform="matrix(0.996, -0.087, 0.087, 0.996, -7473.802, -11950.079)">
      <path id="path4786" d="M93.283,76.088l38.3-22.148L38.239,0,0,22.174,93.283,76.087" transform="translate(0 17.345)" fill="#ed801e"/>
      <path id="path4788" d="M0,24.976V22.148L38.3,0V2.824L0,24.976" transform="translate(93.283 71.284)" fill="#d76c1b"/>
      <path id="path4790" d="M93.283,53.914v2.828L0,2.841V0L93.283,53.914" transform="translate(0 39.519)" fill="#c85e1e"/>
      <path id="path4792" d="M22.8,41.72,22.8,13.181,0,0V28.505L22.8,41.72" transform="translate(9.759 13.181)" fill="#d9a14e"/>
      <path id="path4794" d="M0,41.72.007,13.181,22.812,0V28.505L0,41.72" transform="translate(32.555 13.181)" fill="#e6af64"/>
      <path id="path4796" d="M45.608,13.181,22.8,26.362,0,13.181,22.8,0,45.608,13.181" transform="translate(9.759 0)" fill="#fdddb6"/>
      <path id="path4798" d="M0,8.33l5.087,2.952V2.952L0,0V8.33" transform="translate(18.236 18.05)" fill="#464648"/>
      <path id="path4800" d="M0,13.166,22.773,0l5.1,2.945L5.086,16.13,0,13.166" transform="translate(18.236 4.884)" fill="#656769"/>
      <path id="path4802" d="M7.655,5.909V4.441L0,0V1.49L7.655,5.909" transform="translate(21.886 44.909)" fill="#464648"/>
      <path id="path4804" d="M7.655,5.907V4.441L0,0V1.488L7.655,5.907" transform="translate(21.886 42.287)" fill="#464648"/>
      <path id="path4806" d="M3.663,2.121v5.09L0,5.092V0L3.663,2.121" transform="translate(11.352 35.386)" fill="#464648"/>
      <path id="path4808" d="M0,2.116V7.421L3.663,5.305V0L0,2.116" transform="translate(50.349 34.859)" fill="#464648"/>
      <path id="path4810" d="M0,2.114V7.419L3.661,5.3V0L0,2.114" transform="translate(45.354 37.758)" fill="#464648"/>
      <path id="path4812" d="M0,4.357V11.98L7.525,7.632V0L0,4.357" transform="translate(46.488 17.113)" fill="#fff"/>
      <path id="path4814" d="M0,4.654V3.413L5.922,0V1.221L0,4.654" transform="translate(47.408 18.375)" fill="#464648"/>
      <path id="path4816" d="M22.8,28.9,22.8,13.185,0,0V15.687L22.8,28.9" transform="translate(38.092 42.445)" fill="#d9a14e"/>
      <path id="path4818" d="M0,28.9.007,13.185,22.81,0V15.687L0,28.9" transform="translate(60.888 42.445)" fill="#e6af64"/>
      <path id="path4820" d="M45.606,13.179,22.8,26.362,0,13.179,22.8,0l22.81,13.179" transform="translate(38.092 29.266)" fill="#fdddb6"/>
      <path id="path4822" d="M0,8.332l5.085,2.95V2.956L0,0V8.332" transform="translate(46.569 47.314)" fill="#464648"/>
      <path id="path4824" d="M0,13.164,22.769,0l5.1,2.943L5.085,16.13,0,13.164" transform="translate(46.569 34.15)" fill="#656769"/>
      <path id="path4826" d="M7.655,5.906V4.438L0,0V1.488L7.655,5.906" transform="translate(50.219 61.356)" fill="#464648"/>
      <path id="path4828" d="M7.655,5.9V4.438L0,0V1.486L7.655,5.9" transform="translate(50.219 58.735)" fill="#464648"/>
      <path id="path4830" d="M3.661,2.119V7.211L0,5.09V0L3.661,2.119" transform="translate(39.684 51.833)" fill="#464648"/>
      <path id="path4832" d="M0,2.114V7.419L3.661,5.3V0L0,2.114" transform="translate(79.103 52.162)" fill="#464648"/>
      <path id="path4834" d="M0,2.116v5.3L3.659,5.3V0L0,2.116" transform="translate(74.108 55.058)" fill="#464648"/>
      <path id="path4836" d="M0,4.356v7.625l7.525-4.35V0L0,4.356" transform="translate(61.886 51.924)" fill="#fff"/>
      <path id="path4838" d="M0,4.654V3.414L5.92,0V1.221L0,4.654" transform="translate(62.807 53.184)" fill="#464648"/>
      <path id="path4840" d="M22.794,28.9,22.8,13.181,0,0V15.686L22.794,28.9" transform="translate(68.246 59.809)" fill="#d9a14e"/>
      <path id="path4842" d="M0,34.683.009,18.964,32.829,0V15.688L0,34.683" transform="translate(91.039 54.027)" fill="#e6af64"/>
      <path id="path4844" d="M55.623,13.175,22.8,32.139,0,18.958,32.829,0,55.623,13.175" transform="translate(68.245 40.851)" fill="#fdddb6"/>
      <path id="path4846" d="M0,8.33l5.085,2.952V2.952L0,0V8.33" transform="translate(76.722 64.678)" fill="#464648"/>
      <path id="path4848" d="M0,18.943,32.8,0l5.1,2.947L5.085,21.907,0,18.943" transform="translate(76.723 45.735)" fill="#656769"/>
      <path id="path4850" d="M7.655,5.908V4.439L0,0V1.49L7.655,5.908" transform="translate(81.684 80.199)" fill="#464648"/>
      <path id="path4852" d="M7.655,5.9V4.438L0,0V1.488L7.655,5.9" transform="translate(81.684 77.577)" fill="#464648"/>
      <path id="path4854" d="M0,2.114V7.419L3.661,5.3V0L0,2.114" transform="translate(119.259 63.13)" fill="#464648"/>
      <path id="path4856" d="M0,2.116v5.3L3.661,5.305V0L0,2.116" transform="translate(114.263 66.027)" fill="#464648"/>
      <path id="path4858" d="M0,2.114V7.421L3.663,5.3V0L0,2.114" transform="translate(109.201 68.935)" fill="#464648"/>
      <path id="path4860" d="M0,4.357v7.622L7.525,7.63V0L0,4.357" transform="translate(92.038 69.286)" fill="#fff"/>
      <path id="path4862" d="M0,4.654V3.412L5.92,0V1.218L0,4.654" transform="translate(92.96 70.548)" fill="#464648"/>
      <path id="path4864" d="M14.719,17.714l.006-9.2L0,0V9.182l14.719,8.532" transform="translate(79.079 49.087)" fill="#d9a14e"/>
      <path id="path4866" d="M0,21.446l.006-9.2L21.2,0V9.18L0,21.446" transform="translate(93.799 45.355)" fill="#e6af64"/>
      <path id="path4868" d="M35.917,8.506,14.725,20.752,0,12.24,21.2,0,35.917,8.506" transform="translate(79.079 36.863)" fill="#fdddb6"/>
      <path id="path4870" d="M4.942,3.814V2.865L0,0V.961L4.942,3.814" transform="translate(87.758 61.307)" fill="#464648"/>
      <path id="path4872" d="M4.942,3.813V2.867L0,0V.961L4.942,3.813" transform="translate(87.758 59.613)" fill="#464648"/>
      <path id="path4874" d="M0,1.7V5.975L2.949,4.27V0L0,1.7" transform="translate(111.335 47.37)" fill="#464648"/>
      <path id="path4876" d="M0,1.705V5.977l2.949-1.7V0L0,1.705" transform="translate(107.312 49.701)" fill="#464648"/>
      <path id="path4878" d="M0,4.357v5.1L7.525,5.109V0L0,4.357" transform="translate(94.957 54.216)" fill="#fff"/>
      <path id="path4880" d="M0,4.652V3.413L5.92,0V1.219L0,4.652" transform="translate(95.879 55.478)" fill="#464648"/>
      <path id="path4882" d="M0,4.842,5.086,7.794V2.954L0,0V4.842" transform="translate(82.8 51.235)" fill="#464648"/>
      <path id="path4884" d="M0,12.24,21.168,0l5.113,2.956L5.087,15.206,0,12.24" transform="translate(82.8 38.996)" fill="#656769"/>
      <path id="path4886" d="M14.719,17.7l.006-9.186L0,0V9.191L14.719,17.7" transform="translate(45.927 33.876)" fill="#d9a14e"/>
      <path id="path4888" d="M0,19.125.006,9.939,17.2,0V9.188L0,19.125" transform="translate(60.646 32.449)" fill="#e6af64"/>
      <path id="path4890" d="M31.916,8.506,14.725,18.446,0,9.934,17.182,0,31.916,8.506" transform="translate(45.927 23.942)" fill="#fdddb6"/>
      <path id="path4892" d="M4.944,3.815V2.867L0,0V.961L4.944,3.815" transform="translate(54.605 46.078)" fill="#464648"/>
      <path id="path4894" d="M4.944,3.815V2.867L0,0V.963L4.944,3.815" transform="translate(54.605 44.384)" fill="#464648"/>
      <path id="path4896" d="M0,1.7V5.977L2.95,4.272V0L0,1.7" transform="translate(74.158 34.475)" fill="#464648"/>
      <path id="path4898" d="M0,4.359v5.1l7.525-4.35V0L0,4.359" transform="translate(61.805 38.988)" fill="#fff"/>
      <path id="path4900" d="M0,4.654V3.413L5.92,0V1.221L0,4.654" transform="translate(62.725 40.25)" fill="#464648"/>
      <path id="path4902" d="M0,4.841,5.085,7.794V2.954L0,0V4.841" transform="translate(49.648 36.01)" fill="#464648"/>
      <path id="path4904" d="M0,9.928,17.169,0l5.1,2.947L5.085,12.893,0,9.928" transform="translate(49.648 26.082)" fill="#656769"/>
      <path id="path4906" d="M10.134,12.94l0-7.1L0,0V7.1l10.134,5.84" transform="translate(87.94 39.528)" fill="#d9a14e"/>
      <path id="path4908" d="M0,13.89l0-7.1L11.745,0V7.094L0,13.89" transform="translate(98.074 38.578)" fill="#e6af64"/>
      <path id="path4910" d="M21.879,5.849,10.138,12.643,0,6.8,11.763,0,21.879,5.849" transform="translate(87.94 32.729)" fill="#fdddb6"/>
      <path id="path4912" d="M3.817,2.947V2.216L0,0V.744l3.817,2.2" transform="translate(93.409 48.222)" fill="#464648"/>
      <path id="path4914" d="M3.817,2.947V2.216L0,0V.744l3.817,2.2" transform="translate(93.409 46.914)" fill="#464648"/>
      <path id="path4916" d="M0,1.316v3.3L2.275,3.3V0L0,1.316" transform="translate(106.423 40.757)" fill="#464648"/>
      <path id="path4918" d="M0,2.724v3.9L4.734,3.9V0L0,2.724" transform="translate(104.254 40.222)" fill="#fff"/>
      <path id="path4920" d="M0,2.745V2.012L3.491,0V.72L0,2.745" transform="translate(104.97 41.144)" fill="#464648"/>
      <path id="path4922" d="M0,0,2.609,1.518V5.253L0,3.739V0" transform="translate(90.898 41.211)" fill="#464648"/>
      <path id="path4924" d="M0,6.779,11.735,0l2.622,1.507L2.609,8.3,0,6.779" transform="translate(90.898 34.432)" fill="#656769"/>
    </g>
  </g>
</svg>
