<svg xmlns="http://www.w3.org/2000/svg" width="82.19" height="92.504" viewBox="0 0 82.19 92.504">
  <g id="Grupo_141761" data-name="Grupo 141761" transform="translate(7163.925 12261.097)">
    <g id="Grupo_141202" data-name="Grupo 141202" transform="translate(-7163.925 -12261.097)">
      <path id="path3534" d="M290-262.426l-38.219,22.084,1.191.749L291.3-261.73l-1.3-.7" transform="translate(-209.111 326.648)" fill="#ed801e"/>
      <path id="path3536" d="M290.855-261.991l-38.332,22.133v5.455l38.332-22.135v-5.453" transform="translate(-208.666 326.907)" fill="#c85e1e"/>
      <path id="path3538" d="M251.777-243.074v-5.513l1.191.743v5.455l-1.191-.685" transform="translate(-209.111 334.893)" fill="#d76c1b"/>
      <path id="path3540" d="M263.258-277.935l-38.219,22.084,1.191.749,38.332-22.135-1.3-.7" transform="translate(-225.038 317.41)" fill="#ed801e"/>
      <path id="path3542" d="M264.117-277.5l-38.332,22.135v5.453l38.332-22.133V-277.5" transform="translate(-224.593 317.669)" fill="#c85e1e"/>
      <path id="path3544" d="M225.038-258.583V-264.1l1.191.745v5.453l-1.191-.685" transform="translate(-225.038 325.654)" fill="#d76c1b"/>
      <path id="path3546" d="M276.238-270.562,238.021-248.48l1.191.751,38.33-22.137-1.3-.7" transform="translate(-217.305 321.802)" fill="#ed801e"/>
      <path id="path3548" d="M277.1-270.129l-38.33,22.135v5.453l38.33-22.133v-5.455" transform="translate(-216.86 322.06)" fill="#c85e1e"/>
      <path id="path3550" d="M238.021-251.209v-5.515l1.191.745v5.453l-1.191-.683" transform="translate(-217.305 330.045)" fill="#d76c1b"/>
      <path id="path3552" d="M268.9-239.714l-43.857-25.32v1.764L268.9-237.948v-1.766" transform="translate(-225.038 325.095)" fill="#d76c1b"/>
      <path id="path3554" d="M273.493-241.325l-4.6,2.57-43.857-25.32,4.576-2.57,43.879,25.32" transform="translate(-225.038 324.135)" fill="#ed801e"/>
      <path id="path3556" d="M257.121-250.777l-4.6,2.57v3.287l4.6-2.674v-3.183" transform="translate(-208.666 333.587)" fill="#c85e1e"/>
      <path id="path3558" d="M274.3-242.832l-43.981-25.429v1.764L274.3-241.068v-1.764" transform="translate(-221.891 323.173)" fill="#d76c1b"/>
      <path id="path3560" d="M278.9-244.443l-4.6,2.57L230.322-267.3l4.574-2.57,44,25.428" transform="translate(-221.891 322.213)" fill="#ed801e"/>
      <path id="path3562" d="M262.482-253.935l-4.6,2.57v3.287l4.6-2.676v-3.181" transform="translate(-205.473 331.706)" fill="#c85e1e"/>
      <path id="path3564" d="M279.829-245.921,235.746-271.4v1.764l44.083,25.484v-1.764" transform="translate(-218.66 321.3)" fill="#d76c1b"/>
      <path id="path3566" d="M284.427-247.531l-4.6,2.57-44.083-25.484,4.574-2.57,44.106,25.484" transform="translate(-218.66 320.341)" fill="#ed801e"/>
      <path id="path3568" d="M267.97-257.045l-4.6,2.57v3.287l4.6-2.676v-3.181" transform="translate(-202.203 329.854)" fill="#c85e1e"/>
      <path id="path3570" d="M285.151-249.14,241.17-274.462v1.764l43.981,25.322v-1.764" transform="translate(-215.429 319.479)" fill="#d76c1b"/>
      <path id="path3572" d="M289.748-250.751l-4.6,2.57L241.17-273.5l4.574-2.57,44,25.322" transform="translate(-215.429 318.52)" fill="#ed801e"/>
      <path id="path3574" d="M273.33-260.2l-4.6,2.57v3.287l4.6-2.676V-260.2" transform="translate(-199.01 327.972)" fill="#c85e1e"/>
      <path id="path3576" d="M290.123-251.869,246.035-277.3v1.764l44.087,25.433v-1.764" transform="translate(-212.53 317.787)" fill="#d76c1b"/>
      <path id="path3578" d="M294.72-253.48l-4.6,2.57-44.087-25.433,4.574-2.57L294.72-253.48" transform="translate(-212.53 316.828)" fill="#ed801e"/>
      <path id="path3580" d="M278.262-262.974l-4.6,2.57v3.287l4.6-2.676v-3.181" transform="translate(-196.073 326.322)" fill="#c85e1e"/>
      <path id="path3582" d="M247.654-248.927l.006-13.659-19.816-11.453v13.629l19.81,11.482" transform="translate(-223.367 319.732)" fill="#d9a14e"/>
      <path id="path3584" d="M240.259-247.051l.006-13.659,28.518-16.478v13.631l-28.524,16.506" transform="translate(-215.971 317.855)" fill="#e6af64"/>
      <path id="path3586" d="M276.178-272.914l-28.518,16.478L227.845-267.89l28.528-16.472,19.805,11.448" transform="translate(-223.367 313.582)" fill="#fdddb6"/>
      <path id="path3588" d="M232.462-264.147l4.419,2.564v-7.236l-4.419-2.568v7.24" transform="translate(-220.616 321.311)" fill="#464648"/>
      <path id="path3590" d="M232.462-265.242l28.5-16.461,4.43,2.562-28.511,16.476-4.419-2.576" transform="translate(-220.616 315.166)" fill="#656769"/>
      <path id="path3592" d="M241.816-257.8v-1.274l-6.653-3.857v1.294l6.653,3.838" transform="translate(-219.007 326.346)" fill="#464648"/>
      <path id="path3594" d="M241.816-259.23v-1.277l-6.653-3.857v1.294l6.653,3.84" transform="translate(-219.007 325.495)" fill="#464648"/>
      <path id="path3596" d="M255.626-270.392v4.608l3.183-1.836v-4.61l-3.183,1.838" transform="translate(-206.818 320.809)" fill="#464648"/>
      <path id="path3598" d="M252.906-268.815v4.61l3.181-1.838v-4.608l-3.181,1.836" transform="translate(-208.438 321.749)" fill="#464648"/>
      <path id="path3600" d="M250.15-267.231v4.608l3.181-1.838v-4.608l-3.181,1.838" transform="translate(-210.08 322.692)" fill="#464648"/>
      <path id="path3602" d="M240.8-265.091v6.623l6.54-3.779v-6.632l-6.54,3.787" transform="translate(-215.648 322.805)" fill="#fff"/>
      <path id="path3604" d="M241.3-264.147v-1.079l5.144-2.966v1.062l-5.144,2.983" transform="translate(-215.349 323.214)" fill="#464648"/>
      <path id="path3606" d="M261.286-240.928l.006-13.659-19.814-11.455v13.629l19.808,11.485" transform="translate(-215.245 324.494)" fill="#d9a14e"/>
      <path id="path3608" d="M253.891-239.053l.006-13.659,28.52-16.478v13.629l-28.526,16.508" transform="translate(-207.851 322.619)" fill="#e6af64"/>
      <path id="path3610" d="M289.812-264.916l-28.52,16.478-19.814-11.457,28.528-16.472,19.805,11.451" transform="translate(-215.245 318.345)" fill="#fdddb6"/>
      <path id="path3612" d="M246.094-256.151l4.419,2.566v-7.238l-4.419-2.568v7.24" transform="translate(-212.496 326.073)" fill="#464648"/>
      <path id="path3614" d="M246.094-257.247l28.5-16.459,4.43,2.559-28.511,16.476-4.419-2.576" transform="translate(-212.496 319.93)" fill="#656769"/>
      <path id="path3616" d="M255.45-249.806v-1.274l-6.653-3.857v1.294l6.653,3.838" transform="translate(-210.886 331.109)" fill="#464648"/>
      <path id="path3618" d="M255.45-251.234v-1.274l-6.653-3.857v1.291l6.653,3.84" transform="translate(-210.886 330.258)" fill="#464648"/>
      <path id="path3620" d="M269.259-262.4v4.61l3.181-1.838v-4.608l-3.181,1.836" transform="translate(-198.697 325.573)" fill="#464648"/>
      <path id="path3622" d="M266.538-260.817v4.608l3.183-1.838v-4.608l-3.183,1.838" transform="translate(-200.318 326.512)" fill="#464648"/>
      <path id="path3624" d="M263.782-259.235v4.61l3.181-1.838v-4.61l-3.181,1.838" transform="translate(-201.96 327.454)" fill="#464648"/>
      <path id="path3626" d="M254.435-257.1v6.623l6.538-3.776v-6.634l-6.538,3.787" transform="translate(-207.527 327.568)" fill="#fff"/>
      <path id="path3628" d="M254.937-256.149v-1.079l5.145-2.968v1.062l-5.145,2.985" transform="translate(-207.229 327.978)" fill="#464648"/>
      <path id="path3630" d="M247.654-258.368l.006-13.659-19.816-11.455v13.629l19.81,11.485" transform="translate(-223.367 314.106)" fill="#d9a14e"/>
      <path id="path3632" d="M240.259-256.493l.006-13.659,28.518-16.478V-273l-28.524,16.506" transform="translate(-215.971 312.231)" fill="#e6af64"/>
      <path id="path3634" d="M276.178-282.355,247.661-265.88l-19.816-11.453,28.528-16.474,19.805,11.45" transform="translate(-223.367 307.956)" fill="#fdddb6"/>
      <path id="path3636" d="M232.462-273.592l4.419,2.566v-7.238l-4.419-2.566v7.238" transform="translate(-220.616 315.686)" fill="#464648"/>
      <path id="path3638" d="M232.462-274.685l28.5-16.461,4.43,2.559-28.511,16.476-4.419-2.574" transform="translate(-220.616 309.541)" fill="#656769"/>
      <path id="path3640" d="M241.816-267.244v-1.274l-6.653-3.859v1.293l6.653,3.84" transform="translate(-219.007 320.72)" fill="#464648"/>
      <path id="path3642" d="M241.816-268.674v-1.274l-6.653-3.857v1.294l6.653,3.838" transform="translate(-219.007 319.87)" fill="#464648"/>
      <path id="path3644" d="M255.626-279.837v4.61l3.183-1.838v-4.608l-3.183,1.836" transform="translate(-206.818 315.184)" fill="#464648"/>
      <path id="path3646" d="M252.906-278.257v4.608l3.181-1.838V-280.1l-3.181,1.838" transform="translate(-208.438 316.123)" fill="#464648"/>
      <path id="path3648" d="M250.15-276.675v4.61l3.181-1.838v-4.608l-3.181,1.836" transform="translate(-210.08 317.067)" fill="#464648"/>
      <path id="path3650" d="M240.8-274.536v6.625l6.54-3.779v-6.632l-6.54,3.785" transform="translate(-215.648 317.18)" fill="#fff"/>
      <path id="path3652" d="M241.3-273.59v-1.079l5.144-2.966v1.06L241.3-273.59" transform="translate(-215.349 317.59)" fill="#464648"/>
      <path id="path3654" d="M261.286-250.372l.006-13.659-19.814-11.455v13.631l19.808,11.482" transform="translate(-215.245 318.869)" fill="#d9a14e"/>
      <path id="path3656" d="M253.891-248.5l.006-13.659,28.52-16.478V-265L253.891-248.5" transform="translate(-207.851 316.994)" fill="#e6af64"/>
      <path id="path3658" d="M289.812-274.36l-28.52,16.478-19.814-11.455,28.528-16.472,19.805,11.448" transform="translate(-215.245 312.72)" fill="#fdddb6"/>
      <path id="path3660" d="M246.094-265.594l4.419,2.564v-7.236l-4.419-2.568v7.24" transform="translate(-212.496 320.449)" fill="#464648"/>
      <path id="path3662" d="M246.094-266.689l28.5-16.461,4.43,2.559-28.511,16.478-4.419-2.576" transform="translate(-212.496 314.304)" fill="#656769"/>
      <path id="path3664" d="M255.45-259.249v-1.274l-6.653-3.857v1.294l6.653,3.838" transform="translate(-210.886 325.485)" fill="#464648"/>
      <path id="path3666" d="M255.45-260.676v-1.274L248.8-265.81v1.294l6.653,3.84" transform="translate(-210.886 324.633)" fill="#464648"/>
      <path id="path3668" d="M269.259-271.839v4.608l3.181-1.838v-4.608l-3.181,1.838" transform="translate(-198.697 319.947)" fill="#464648"/>
      <path id="path3670" d="M266.538-270.261v4.61l3.183-1.838v-4.61l-3.183,1.838" transform="translate(-200.318 320.887)" fill="#464648"/>
      <path id="path3672" d="M263.782-268.677v4.608l3.181-1.838v-4.608l-3.181,1.838" transform="translate(-201.96 321.83)" fill="#464648"/>
      <path id="path3674" d="M254.435-266.538v6.623l6.538-3.778v-6.632l-6.538,3.787" transform="translate(-207.527 321.944)" fill="#fff"/>
      <path id="path3676" d="M254.937-265.594v-1.079l5.145-2.966v1.059l-5.145,2.985" transform="translate(-207.229 322.352)" fill="#464648"/>
      <path id="path3678" d="M253.457-258.226l-.009-17.131L278.3-289.725v17.095l-24.843,14.4" transform="translate(-208.115 310.388)" fill="#d9a14e"/>
      <path id="path3680" d="M266.811-255.874,266.8-273,231.03-293.674v17.1l35.781,20.7" transform="translate(-221.469 308.035)" fill="#e6af64"/>
      <path id="path3682" d="M231.03-288.313,266.8-267.646l24.852-14.367-35.781-20.661L231.03-288.313" transform="translate(-221.469 302.674)" fill="#fdddb6"/>
      <path id="path3684" d="M265.3-277.319l-5.542,3.217v-9.076L265.3-286.4v9.08" transform="translate(-204.355 312.369)" fill="#464648"/>
      <path id="path3686" d="M278.653-278.692,242.9-299.338l-5.555,3.211,35.762,20.667,5.542-3.232" transform="translate(-217.705 304.661)" fill="#656769"/>
      <path id="path3688" d="M254.615-269.359v-1.6l8.344-4.838v1.621l-8.344,4.817" transform="translate(-207.42 318.684)" fill="#464648"/>
      <path id="path3690" d="M254.615-271.153v-1.6l8.344-4.838v1.621l-8.344,4.815" transform="translate(-207.42 317.616)" fill="#464648"/>
      <path id="path3692" d="M235.669-285.15v5.781l-3.991-2.306v-5.781l3.991,2.306" transform="translate(-221.083 311.739)" fill="#464648"/>
      <path id="path3694" d="M239.081-283.173v5.781l-3.991-2.3v-5.781l3.991,2.3" transform="translate(-219.05 312.918)" fill="#464648"/>
      <path id="path3696" d="M242.538-281.187v5.783l-3.989-2.306v-5.78l3.989,2.3" transform="translate(-216.99 314.101)" fill="#464648"/>
      <path id="path3698" d="M255.834-278.5v8.308l-8.2-4.74v-8.317l8.2,4.749" transform="translate(-211.579 314.244)" fill="#fff"/>
      <path id="path3700" d="M254.55-277.318v-1.351L248.1-282.39v1.33l6.451,3.742" transform="translate(-211.301 314.756)" fill="#464648"/>
    </g>
  </g>
</svg>
