<svg xmlns="http://www.w3.org/2000/svg" width="136.28" height="120.709" viewBox="0 0 136.28 120.709">
  <g id="Grupo_141782" data-name="Grupo 141782" transform="translate(-2026 4156.524)">
    <g id="Grupo_141131" data-name="Grupo 141131" transform="translate(2017 -4171.524)">
      <rect id="Rectángulo_41691" data-name="Rectángulo 41691" width="83.539" height="101.966" transform="translate(11 17)" fill="#f0f8ff"/>
      <path id="Rectángulo_41692" data-name="Rectángulo 41692" d="M0-2H83.539a2,2,0,0,1,2,2V101.966a2,2,0,0,1-2,2H0a2,2,0,0,1-2-2V0A2,2,0,0,1,0-2ZM81.539,2H2V99.966H81.539Z" transform="translate(11 17)" fill="#12263f"/>
      <path id="Trazado_207590" data-name="Trazado 207590" d="M35.742,49.2H23.457A2.464,2.464,0,0,1,21,46.742V34.457A2.464,2.464,0,0,1,23.457,32H35.742A2.464,2.464,0,0,1,38.2,34.457V46.742A2.464,2.464,0,0,1,35.742,49.2Z" transform="translate(2.285 3.428)" fill="#fff59d"/>
      <path id="Trazado_207591" data-name="Trazado 207591" d="M35.5,69.2H23.457A2.464,2.464,0,0,1,21,66.742V54.457A2.464,2.464,0,0,1,23.457,52H35.742A2.464,2.464,0,0,1,38.2,54.457V66.5A2.727,2.727,0,0,1,35.5,69.2Z" transform="translate(2.285 7.998)" fill="#fff59d"/>
      <path id="Trazado_207592" data-name="Trazado 207592" d="M35.742,90.2H23.457A2.464,2.464,0,0,1,21,87.742V75.457A2.464,2.464,0,0,1,23.457,73H35.742A2.464,2.464,0,0,1,38.2,75.457V87.742A2.464,2.464,0,0,1,35.742,90.2Z" transform="translate(2.285 12.797)" fill="#fff59d"/>
      <path id="Trazado_207593" data-name="Trazado 207593" d="M35.742,51.2H23.457A4.462,4.462,0,0,1,19,46.742V34.457A4.462,4.462,0,0,1,23.457,30H35.742A4.462,4.462,0,0,1,40.2,34.457V46.742A4.462,4.462,0,0,1,35.742,51.2ZM23.457,34a.463.463,0,0,0-.457.457V46.742a.463.463,0,0,0,.457.457H35.742a.463.463,0,0,0,.457-.457V34.457A.463.463,0,0,0,35.742,34Z" transform="translate(2.285 3.428)" fill="#12263f"/>
      <path id="Trazado_207594" data-name="Trazado 207594" d="M35.5,71.2H23.457A4.462,4.462,0,0,1,19,66.742V54.457A4.462,4.462,0,0,1,23.457,50H35.742A4.462,4.462,0,0,1,40.2,54.457V66.5a4.727,4.727,0,0,1-4.7,4.7ZM23.457,54a.463.463,0,0,0-.457.457V66.742a.463.463,0,0,0,.457.457H35.5a.73.73,0,0,0,.7-.7V54.457A.463.463,0,0,0,35.742,54Z" transform="translate(2.285 7.998)" fill="#12263f"/>
      <path id="Trazado_207595" data-name="Trazado 207595" d="M35.742,92.2H23.457A4.462,4.462,0,0,1,19,87.742V75.457A4.462,4.462,0,0,1,23.457,71H35.742A4.462,4.462,0,0,1,40.2,75.457V87.742A4.462,4.462,0,0,1,35.742,92.2ZM23.457,75a.463.463,0,0,0-.457.457V87.742a.463.463,0,0,0,.457.457H35.742a.463.463,0,0,0,.457-.457V75.457A.463.463,0,0,0,35.742,75Z" transform="translate(2.285 12.797)" fill="#12263f"/>
      <path id="Trazado_207596" data-name="Trazado 207596" d="M91.111,118.6V24H28.457A2.464,2.464,0,0,0,26,26.457V118.6Z" transform="translate(3.428 1.6)" fill="#242c88" opacity="0.2"/>
      <rect id="Rectángulo_41693" data-name="Rectángulo 41693" width="83.539" height="101.966" transform="translate(35.57 31.742)" fill="#f0f8ff"/>
      <path id="Rectángulo_41694" data-name="Rectángulo 41694" d="M0-2H83.539a2,2,0,0,1,2,2V101.966a2,2,0,0,1-2,2H0a2,2,0,0,1-2-2V0A2,2,0,0,1,0-2ZM81.539,2H2V99.966H81.539Z" transform="translate(35.57 31.742)" fill="#12263f"/>
      <path id="Línea_194" data-name="Línea 194" d="M14.742,2H0A2,2,0,0,1-2,0,2,2,0,0,1,0-2H14.742a2,2,0,0,1,2,2A2,2,0,0,1,14.742,2Z" transform="translate(74.883 61.226)" fill="#242c88" opacity="0.2"/>
      <path id="Línea_195" data-name="Línea 195" d="M29.484,2H0A2,2,0,0,1-2,0,2,2,0,0,1,0-2H29.484a2,2,0,0,1,2,2A2,2,0,0,1,29.484,2Z" transform="translate(74.883 55.084)" fill="#242c88" opacity="0.2"/>
      <path id="Trazado_207597" data-name="Trazado 207597" d="M56.742,61.2H44.457A2.464,2.464,0,0,1,42,58.742V46.457A2.464,2.464,0,0,1,44.457,44H56.742A2.464,2.464,0,0,1,59.2,46.457V58.742A2.464,2.464,0,0,1,56.742,61.2Z" transform="translate(7.084 6.17)" fill="#fff59d"/>
      <path id="Trazado_207598" data-name="Trazado 207598" d="M48.862,57.725a1.994,1.994,0,0,1-1.363-.536l-3.563-3.317a2,2,0,1,1,2.726-2.928l2.138,1.99L54.439,47.2A2,2,0,1,1,57.292,50l-7,7.125A2,2,0,0,1,48.862,57.725Z" transform="translate(7.838 7.221)" fill="#12263f"/>
      <path id="Línea_196" data-name="Línea 196" d="M14.742,1H0A1,1,0,0,1-1,0,1,1,0,0,1,0-1H14.742a1,1,0,0,1,1,1A1,1,0,0,1,14.742,1Z" transform="translate(74.883 87.025)" fill="#242c88" opacity="0.2"/>
      <path id="Línea_197" data-name="Línea 197" d="M29.484,2H0A2,2,0,0,1-2,0,2,2,0,0,1,0-2H29.484a2,2,0,0,1,2,2A2,2,0,0,1,29.484,2Z" transform="translate(74.883 79.654)" fill="#242c88" opacity="0.2"/>
      <path id="Trazado_207599" data-name="Trazado 207599" d="M56.742,81.2H44.457A2.464,2.464,0,0,1,42,78.742V66.457A2.464,2.464,0,0,1,44.457,64H56.5a2.727,2.727,0,0,1,2.7,2.7V78.742A2.464,2.464,0,0,1,56.742,81.2Z" transform="translate(7.084 10.74)" fill="#fff59d"/>
      <path id="Trazado_207600" data-name="Trazado 207600" d="M48.862,77.9a1.994,1.994,0,0,1-1.363-.536l-3.563-3.317a2,2,0,0,1,2.726-2.928l2.15,2,5.638-5.638a2,2,0,0,1,2.828,2.828l-7,7A2,2,0,0,1,48.862,77.9Z" transform="translate(7.838 11.86)" fill="#12263f"/>
      <path id="Línea_198" data-name="Línea 198" d="M14.742,2H0A2,2,0,0,1-2,0,2,2,0,0,1,0-2H14.742a2,2,0,0,1,2,2A2,2,0,0,1,14.742,2Z" transform="translate(74.883 111.595)" fill="#242c88" opacity="0.2"/>
      <path id="Línea_199" data-name="Línea 199" d="M29.484,2H0A2,2,0,0,1-2,0,2,2,0,0,1,0-2H29.484a2,2,0,0,1,2,2A2,2,0,0,1,29.484,2Z" transform="translate(74.883 105.453)" fill="#242c88" opacity="0.2"/>
      <path id="Trazado_207601" data-name="Trazado 207601" d="M56.742,101.2H44.457A2.464,2.464,0,0,1,42,98.742V86.457A2.464,2.464,0,0,1,44.457,84H56.742A2.464,2.464,0,0,1,59.2,86.457V98.742A2.464,2.464,0,0,1,56.742,101.2Z" transform="translate(7.084 15.31)" fill="#fff59d"/>
      <path id="Trazado_207602" data-name="Trazado 207602" d="M56.742,63.2H44.457A4.462,4.462,0,0,1,40,58.742V46.457A4.462,4.462,0,0,1,44.457,42H56.742A4.462,4.462,0,0,1,61.2,46.457V58.742A4.462,4.462,0,0,1,56.742,63.2ZM44.457,46a.463.463,0,0,0-.457.457V58.742a.463.463,0,0,0,.457.457H56.742a.463.463,0,0,0,.457-.457V46.457A.463.463,0,0,0,56.742,46Z" transform="translate(7.084 6.17)" fill="#12263f"/>
      <path id="Trazado_207603" data-name="Trazado 207603" d="M56.742,83.2H44.457A4.462,4.462,0,0,1,40,78.742V66.457A4.462,4.462,0,0,1,44.457,62H56.5a4.727,4.727,0,0,1,4.7,4.7V78.742A4.462,4.462,0,0,1,56.742,83.2ZM44.457,66a.463.463,0,0,0-.457.457V78.742a.463.463,0,0,0,.457.457H56.742a.463.463,0,0,0,.457-.457V66.7a.73.73,0,0,0-.7-.7Z" transform="translate(7.084 10.74)" fill="#12263f"/>
      <path id="Trazado_207604" data-name="Trazado 207604" d="M56.742,103.2H44.457A4.462,4.462,0,0,1,40,98.742V86.457A4.462,4.462,0,0,1,44.457,82H56.742A4.462,4.462,0,0,1,61.2,86.457V98.742A4.462,4.462,0,0,1,56.742,103.2ZM44.457,86a.463.463,0,0,0-.457.457V98.742a.463.463,0,0,0,.457.457H56.742a.463.463,0,0,0,.457-.457V86.457A.463.463,0,0,0,56.742,86Z" transform="translate(7.084 15.31)" fill="#12263f"/>
      <path id="Trazado_207605" data-name="Trazado 207605" d="M109.374,57.6,67.851,82.047,53.6,103.423l25.553-2.211L109.374,83.4Z" transform="translate(9.735 9.278)" fill="#242c88" opacity="0.2"/>
      <g id="Grupo_141130" data-name="Grupo 141130" transform="translate(63.949 33.001)">
        <path id="Trazado_207606" data-name="Trazado 207606" d="M124.494,53.025,78.3,99.217l-24.2,8.477,8.477-24.2L108.769,37.3Z" transform="translate(-54.1 -28.363)" fill="#f0f8ff"/>
        <rect id="Rectángulo_41695" data-name="Rectángulo 41695" width="65.357" height="22.236" transform="translate(8.493 55.212) rotate(-45)" fill="#fff59d"/>
        <rect id="Rectángulo_41696" data-name="Rectángulo 41696" width="65.357" height="6.511" transform="translate(19.574 66.317) rotate(-45)" fill="#242c88" opacity="0.2"/>
        <path id="Trazado_207607" data-name="Trazado 207607" d="M57.786,86,54.1,96.319l10.32-3.686Z" transform="translate(-54.1 -17.234)" fill="#12263f"/>
        <path id="Trazado_207608" data-name="Trazado 207608" d="M108.769,35.3a1.994,1.994,0,0,1,1.414.586l15.725,15.725a2,2,0,0,1,0,2.828L79.716,100.631a2,2,0,0,1-.753.473l-24.2,8.477a2,2,0,0,1-2.549-2.549l8.477-24.2a2,2,0,0,1,.473-.753l46.192-46.192A1.994,1.994,0,0,1,108.769,35.3Zm12.9,17.725-12.9-12.9L64.314,84.584l-6.952,19.849L77.21,97.48Z" transform="translate(-54.1 -28.363)" fill="#12263f"/>
        <path id="Trazado_207609" data-name="Trazado 207609" d="M114.325,54.687l7.371-7.371a5.119,5.119,0,0,0,0-7.371l-8.354-8.354a5.119,5.119,0,0,0-7.371,0L98.6,38.962Z" transform="translate(-43.931 -30.025)" fill="#d84318"/>
        <path id="Trazado_207610" data-name="Trazado 207610" d="M114.325,56.687a1.994,1.994,0,0,1-1.414-.586L97.186,40.377a2,2,0,0,1,0-2.828l7.351-7.351a6.927,6.927,0,0,1,5.073-2.172,7.24,7.24,0,0,1,5.146,2.152l8.334,8.334a6.936,6.936,0,0,1,2.171,4.965,7.227,7.227,0,0,1-2.151,5.254L115.739,56.1A1.994,1.994,0,0,1,114.325,56.687Zm-12.9-17.725,12.9,12.9,5.957-5.957a3.259,3.259,0,0,0,.98-2.365,2.968,2.968,0,0,0-.937-2.136l-.043-.042-8.354-8.354a3.267,3.267,0,0,0-2.317-.981,2.966,2.966,0,0,0-2.183.937l-.042.043Z" transform="translate(-43.931 -30.025)" fill="#12263f"/>
        <path id="Línea_200" data-name="Línea 200" d="M0,34.31a1.994,1.994,0,0,1-1.414-.586,2,2,0,0,1,0-2.828L30.9-1.414a2,2,0,0,1,2.828,0,2,2,0,0,1,0,2.828L1.414,33.724A1.994,1.994,0,0,1,0,34.31Z" transform="translate(32.556 20.977)" fill="#12263f"/>
        <path id="Línea_201" data-name="Línea 201" d="M0,9.494a1.994,1.994,0,0,1-1.414-.586,2,2,0,0,1,0-2.828L6.08-1.414a2,2,0,0,1,2.828,0,2,2,0,0,1,0,2.828L1.414,8.908A1.994,1.994,0,0,1,0,9.494Z" transform="translate(19.533 58.815)" fill="#12263f"/>
        <rect id="Rectángulo_41697" data-name="Rectángulo 41697" width="9.091" height="22.236" transform="translate(51.029 12.731) rotate(-45)" fill="#fff"/>
        <rect id="Rectángulo_41698" data-name="Rectángulo 41698" width="9.091" height="22.236" transform="translate(51.029 12.731) rotate(-45)" fill="#f0f8ff" opacity="0.2"/>
        <path id="Rectángulo_41699" data-name="Rectángulo 41699" d="M0-2H9.091a2,2,0,0,1,2,2V22.236a2,2,0,0,1-2,2H0a2,2,0,0,1-2-2V0A2,2,0,0,1,0-2ZM7.091,2H2V20.236H7.091Z" transform="translate(51.029 12.731) rotate(-45)" fill="#12263f"/>
      </g>
    </g>
  </g>
</svg>
