<svg xmlns="http://www.w3.org/2000/svg" width="136.28" height="136.276" viewBox="0 0 136.28 136.276">
  <g id="Grupo_141780" data-name="Grupo 141780" transform="translate(-312 -7110.53)">
    <g id="Grupo_141124" data-name="Grupo 141124" transform="translate(299 7097.53)">
      <g id="Grupo_141120" data-name="Grupo 141120" transform="translate(95.316 95.316)">
        <path id="Trazado_207565" data-name="Trazado 207565" d="M115.649,126.768a11.083,11.083,0,0,1-7.856-3.25L78.061,93.786A11.12,11.12,0,0,1,93.786,78.061l29.732,29.732a11.113,11.113,0,0,1-7.869,18.975Z" transform="translate(-74.807 -74.807)" fill="#d84318"/>
      </g>
      <path id="Trazado_207566" data-name="Trazado 207566" d="M100.4,116.124A11.115,11.115,0,0,0,116.114,100.4l-4.029-4.029L96.36,112.1Z" transform="translate(27.899 27.903)" fill="#fff59d"/>
      <g id="Grupo_141121" data-name="Grupo 141121" transform="translate(95.316 95.316)">
        <path id="Trazado_207567" data-name="Trazado 207567" d="M115.649,128.768a13.083,13.083,0,0,1-9.27-3.836L76.646,95.2A13.12,13.12,0,0,1,95.2,76.644l29.734,29.734a13.128,13.128,0,0,1,0,18.552l-.007.007A13.084,13.084,0,0,1,115.649,128.768ZM85.918,76.808a9.116,9.116,0,0,0-6.443,15.564L109.207,122.1a9.137,9.137,0,0,0,12.9,0,9.142,9.142,0,0,0,0-12.9L92.372,79.475A9.084,9.084,0,0,0,85.918,76.808Z" transform="translate(-74.807 -74.807)" fill="#12263f"/>
        <path id="Trazado_207568" data-name="Trazado 207568" d="M113.875,117.992a2,2,0,0,1-1.423-3.405A3.662,3.662,0,0,0,113.527,112a3.616,3.616,0,0,0-1.066-2.574L88.826,85.794a2,2,0,0,1,2.828-2.828L115.289,106.6a7.641,7.641,0,0,1,.009,10.8A1.994,1.994,0,0,1,113.875,117.992Z" transform="translate(-70.516 -70.525)" fill="#12263f"/>
      </g>
      <path id="Trazado_207569" data-name="Trazado 207569" d="M93.786,78.061A11.12,11.12,0,0,0,78.061,93.786L89.1,104.825A94.683,94.683,0,0,0,104.825,89.1Z" transform="translate(20.509 20.509)" fill="#242c88" opacity="0.4"/>
      <path id="Trazado_207576" data-name="Trazado 207576" d="M56.577,0A56.577,56.577,0,1,1,0,56.577,56.577,56.577,0,0,1,56.577,0Z" transform="translate(15 15)" fill="#d84318"/>
      <path id="Trazado_207570" data-name="Trazado 207570" d="M19.55,73.517a3.5,3.5,0,0,1-3.5-3.5A54.028,54.028,0,0,1,70.017,16.05a3.5,3.5,0,0,1,0,7A47.02,47.02,0,0,0,23.05,70.017,3.5,3.5,0,0,1,19.55,73.517Z" transform="translate(1.56 1.56)" fill="#fff" opacity="0.4"/>
      <path id="Trazado_207571" data-name="Trazado 207571" d="M57.13,111.1a3.5,3.5,0,0,1,0-7A47.02,47.02,0,0,0,104.1,57.13a3.5,3.5,0,0,1,7,0A54.028,54.028,0,0,1,57.13,111.1Z" transform="translate(14.447 14.447)" fill="#242c88" opacity="0.2"/>
      <path id="Elipse_5401" data-name="Elipse 5401" d="M56.577-2A58.313,58.313,0,0,1,89.329,8.005a58.742,58.742,0,0,1,21.22,25.77,58.5,58.5,0,0,1-5.4,55.554,58.742,58.742,0,0,1-25.77,21.22,58.5,58.5,0,0,1-55.554-5.4A58.742,58.742,0,0,1,2.6,79.378a58.5,58.5,0,0,1,5.4-55.554A58.742,58.742,0,0,1,33.775,2.6,58.212,58.212,0,0,1,56.577-2Zm0,113.154A54.577,54.577,0,1,0,2,56.577,54.639,54.639,0,0,0,56.577,111.154Z" transform="translate(15 15)" fill="#12263f"/>
      <circle id="Elipse_5402" data-name="Elipse 5402" cx="44.343" cy="44.343" r="44.343" transform="translate(27.234 27.234)" fill="#fff"/>
      <circle id="Elipse_5403" data-name="Elipse 5403" cx="44.343" cy="44.343" r="44.343" transform="translate(27.234 27.234)" fill="#f0f8ff"/>
      <path id="Trazado_207572" data-name="Trazado 207572" d="M90.58,29.33A44.335,44.335,0,0,1,29.33,90.58,44.342,44.342,0,1,0,90.58,29.33Z" transform="translate(4.914 4.914)" fill="#242c88" opacity="0.07"/>
      <path id="Elipse_5404" data-name="Elipse 5404" d="M44.343-2A46.355,46.355,0,0,1,62.382,87.043,46.354,46.354,0,0,1,26.3,1.643,46.055,46.055,0,0,1,44.343-2Zm0,88.686A42.343,42.343,0,1,0,2,44.343,42.391,42.391,0,0,0,44.343,86.686Z" transform="translate(27.234 27.234)" fill="#12263f"/>
      <path id="Línea_194" data-name="Línea 194" d="M0,17.725a1.994,1.994,0,0,1-1.414-.586,2,2,0,0,1,0-2.828L14.311-1.414a2,2,0,0,1,2.828,0,2,2,0,0,1,0,2.828L1.414,17.14A1.994,1.994,0,0,1,0,17.725Z" transform="translate(124.273 124.273)" fill="#12263f"/>
      <g id="Grupo_141122" data-name="Grupo 141122" transform="translate(48.479 54.522)">
        <path id="Trazado_207575" data-name="Trazado 207575" d="M60.839,83.562,39.93,62.653l9.494-9.494L60.839,64.574,80.983,44.43l9.494,9.494Z" transform="translate(-39.93 -44.43)" fill="#83d689"/>
      </g>
      <g id="Grupo_141123" data-name="Grupo 141123" transform="translate(48.479 54.522)">
        <path id="Trazado_207576-2" data-name="Trazado 207576" d="M60.839,85.562a1.994,1.994,0,0,1-1.414-.586L38.516,64.067a2,2,0,0,1,0-2.828l9.494-9.494a2,2,0,0,1,2.828,0l10,10L79.569,43.016a2,2,0,0,1,2.828,0l9.494,9.494a2,2,0,0,1,0,2.828L62.253,84.977A1.994,1.994,0,0,1,60.839,85.562ZM42.758,62.653,60.839,80.734l26.81-26.81-6.666-6.666L62.253,65.988a2,2,0,0,1-2.828,0l-10-10Z" transform="translate(-39.93 -44.43)" fill="#12263f"/>
      </g>
    </g>
  </g>
</svg>
