<svg xmlns="http://www.w3.org/2000/svg" width="55.701" height="55.691" viewBox="0 0 55.701 55.691">
  <g id="Grupo_141777" data-name="Grupo 141777" transform="translate(-321.3 -5095)">
    <g id="Grupo_141119" data-name="Grupo 141119" transform="translate(321.3 5095)">
      <g id="Grupo_141117" data-name="Grupo 141117" transform="translate(0.898 0.888)">
        <g id="Grupo_141103" data-name="Grupo 141103" transform="translate(14.375 19.765)">
          <rect id="Rectángulo_41690" data-name="Rectángulo 41690" width="30.546" height="7.187" fill="#fff59d"/>
        </g>
        <g id="Grupo_141104" data-name="Grupo 141104" transform="translate(23.359 23.359)">
          <path id="Trazado_207551" data-name="Trazado 207551" d="M39.578,28.785v1.8H27v-1.8a1.8,1.8,0,0,1,1.8-1.8h8.984A1.8,1.8,0,0,1,39.578,28.785Z" transform="translate(-27 -26.988)" fill="#fff59d"/>
        </g>
        <g id="Grupo_141105" data-name="Grupo 141105" transform="translate(8.984 14.375)">
          <path id="Trazado_207552" data-name="Trazado 207552" d="M11,18.03l1.824-1.042H50.5l1.824,1.042V56.518h-5.39V22.378H16.39V34.058a.9.9,0,0,0-.9-.9H11Z" transform="translate(-11 -16.988)" fill="#f0f8ff"/>
        </g>
        <g id="Grupo_141106" data-name="Grupo 141106" transform="translate(10.781 26.952)">
          <path id="Trazado_207553" data-name="Trazado 207553" d="M29.171,41.769a1.8,1.8,0,0,0-1.8,1.8V34.582H23.781V50.753c-.126,0-.243.009-.368.018A17.5,17.5,0,0,0,13,38.175h2.7a.9.9,0,0,0,.9-.9V30.988H47.14V57.94H23.781a3.593,3.593,0,0,0,3.594-3.594H35.46a2.692,2.692,0,0,0,2.7-2.7v-.9H34.562a1.8,1.8,0,0,0,1.8-1.8v-5.39a1.8,1.8,0,0,0-1.8-1.8h-5.39Z" transform="translate(-13 -30.988)" fill="#fff59d"/>
        </g>
        <g id="Grupo_141107" data-name="Grupo 141107" transform="translate(5.391)">
          <path id="Trazado_207554" data-name="Trazado 207554" d="M54.625,13.808a1.8,1.8,0,0,1-1.815,3.108l-.889-.512L50.1,15.363,31.257,4.582,12.418,15.363,10.594,16.4l-.889.512a1.784,1.784,0,0,1-.907.243,1.8,1.8,0,0,1-.907-3.351L29.577,1.437a3.366,3.366,0,0,1,3.36,0Z" transform="translate(-7.001 -0.988)" fill="#d84318"/>
        </g>
        <g id="Grupo_141108" data-name="Grupo 141108" transform="translate(10.808 3.594)">
          <path id="Trazado_207555" data-name="Trazado 207555" d="M50.709,15.769H13.03L31.87,4.988Z" transform="translate(-13.03 -4.988)" fill="#d84318"/>
        </g>
        <g id="Grupo_141109" data-name="Grupo 141109" transform="translate(27.851 7.187)">
          <circle id="Elipse_5398" data-name="Elipse 5398" cx="1.797" cy="1.797" r="1.797" fill="#f0f8ff"/>
        </g>
        <g id="Grupo_141110" data-name="Grupo 141110" transform="translate(0 30.546)">
          <path id="Trazado_207556" data-name="Trazado 207556" d="M15.375,36.785v.9a.9.9,0,0,1-.9.9H1.9a.9.9,0,0,1-.9-.9v-1.8a.9.9,0,0,1,.9-.9H14.476a.9.9,0,0,1,.9.9Z" transform="translate(-1 -34.988)" fill="#f0f8ff"/>
        </g>
        <g id="Grupo_141111" data-name="Grupo 141111" transform="translate(21.562 30.546)">
          <path id="Trazado_207557" data-name="Trazado 207557" d="M28.594,49.363v1.8H25V34.988h3.594V49.363Z" transform="translate(-25 -34.988)" fill="#f0f8ff"/>
        </g>
        <g id="Grupo_141112" data-name="Grupo 141112" transform="translate(21.562 46.717)">
          <path id="Trazado_207558" data-name="Trazado 207558" d="M30.39,52.988h8.984v.9a2.692,2.692,0,0,1-2.7,2.7H28.594A3.593,3.593,0,0,0,25,52.988h5.39Z" transform="translate(-25 -52.988)" fill="#f0f8ff"/>
        </g>
        <g id="Grupo_141113" data-name="Grupo 141113" transform="translate(1.797 44.92)">
          <path id="Trazado_207559" data-name="Trazado 207559" d="M11.984,56.378H4.8a1.8,1.8,0,0,1-1.8-1.8V50.988h7.187a3.593,3.593,0,0,1,3.594,3.594v1.8Z" transform="translate(-3 -50.988)" fill="#f0f8ff"/>
        </g>
        <g id="Grupo_141114" data-name="Grupo 141114" transform="translate(17.968 46.717)">
          <path id="Trazado_207560" data-name="Trazado 207560" d="M24.594,52.988a3.584,3.584,0,1,1-.368.018C24.351,53,24.468,52.988,24.594,52.988Z" transform="translate(-21 -52.988)" fill="#f0f8ff"/>
        </g>
        <g id="Grupo_141115" data-name="Grupo 141115" transform="translate(3.594 50.311)">
          <path id="Trazado_207561" data-name="Trazado 207561" d="M5,56.988h7.187a3.594,3.594,0,1,1-7.187,0Z" transform="translate(-5 -56.988)" fill="#f0f8ff"/>
        </g>
        <g id="Grupo_141116" data-name="Grupo 141116" transform="translate(25.155 37.733)">
          <path id="Trazado_207562" data-name="Trazado 207562" d="M32.594,42.988h3.594a1.8,1.8,0,0,1,1.8,1.8v5.39a1.8,1.8,0,0,1-1.8,1.8H30.8a1.8,1.8,0,0,1-1.8-1.8v-5.39a1.8,1.8,0,0,1,1.8-1.8Z" transform="translate(-29 -42.988)" fill="#d3a06c"/>
        </g>
      </g>
      <g id="Grupo_141118" data-name="Grupo 141118" transform="translate(0 0)">
        <path id="Trazado_207563" data-name="Trazado 207563" d="M54.358,12.93,32.67.552a4.358,4.358,0,0,0-4.249,0L6.728,12.934a2.7,2.7,0,0,0,1.36,5.023,2.672,2.672,0,0,0,.9-.174V30.534H1.8a1.8,1.8,0,0,0-1.8,1.8v1.8a1.8,1.8,0,0,0,1.8,1.8V49.4A2.689,2.689,0,0,0,3.67,51.954a4.485,4.485,0,0,0,8.817.143h5.572a4.492,4.492,0,0,0,8.8,0H34.14A3.6,3.6,0,0,0,37.733,48.5v-1.8H35.771a2.665,2.665,0,0,0,.165-.9v-5.39a2.7,2.7,0,0,0-2.7-2.7h-5.39a2.665,2.665,0,0,0-.9.165V30.535h-5.39v12.73A18.405,18.405,0,0,0,15.038,35.8a1.8,1.8,0,0,0,1.134-1.667v-5.39H44.92V55.691h1.8V19.754H14.375V30.535H10.781V16.826l1.163-.666H49.15l1.163.665V55.691h1.8V17.783a2.668,2.668,0,0,0,.9.174,2.7,2.7,0,0,0,1.352-5.027ZM12.578,50.3H4.492a.9.9,0,0,1-.9-.9v-2.7H9.882a2.7,2.7,0,0,1,2.7,2.7ZM8.086,53.894a2.692,2.692,0,0,1-2.53-1.8h5.059A2.688,2.688,0,0,1,8.086,53.894Zm14.375,0a2.7,2.7,0,1,1,2.7-2.7A2.7,2.7,0,0,1,22.46,53.894ZM34.14,50.3H26.862a4.461,4.461,0,0,0-.83-1.8h9.9A1.8,1.8,0,0,1,34.14,50.3ZM27.851,39.519h.9v3.594h1.8V39.519h2.7a.9.9,0,0,1,.9.9v5.39a.9.9,0,0,1-.9.9h-5.39a.9.9,0,0,1-.9-.9v-5.39A.9.9,0,0,1,27.851,39.519Zm-2.7-7.187V46.706h-1.8V32.332ZM21.011,46.968A4.493,4.493,0,0,0,18.059,50.3H14.375v-.9a4.5,4.5,0,0,0-4.492-4.492H3.594V35.926h7.893A16.6,16.6,0,0,1,21.011,46.968ZM35.936,26.941H25.155v-.9a.9.9,0,0,1,.9-.9h8.984a.9.9,0,0,1,.9.9Zm8.984-5.39v5.39H37.733v-.9a2.7,2.7,0,0,0-2.7-2.7H26.054a2.7,2.7,0,0,0-2.7,2.7v.9H16.171v-5.39ZM14.375,33.23v.9H1.8l0-1.8h12.58Zm.71-18.867L30.547,5.516l15.463,8.848Zm38.7,1.349a.916.916,0,0,1-1.236.322l-22-12.589L8.538,16.039a.922.922,0,0,1-1.226-.321.9.9,0,0,1,.315-1.226L29.312,2.114a2.487,2.487,0,0,1,2.467,0L53.459,14.485A.9.9,0,0,1,53.784,15.713Z" transform="translate(0 0)" fill="#12263f"/>
        <path id="Trazado_207564" data-name="Trazado 207564" d="M31,10.683a2.7,2.7,0,1,0,2.7-2.7A2.7,2.7,0,0,0,31,10.683Zm3.594,0a.9.9,0,1,1-.9-.9A.9.9,0,0,1,34.594,10.683Z" transform="translate(-3.149 -0.811)" fill="#12263f"/>
        <circle id="Elipse_5399" data-name="Elipse 5399" cx="0.898" cy="0.898" r="0.898" transform="translate(21.562 50.3)" fill="#12263f"/>
      </g>
    </g>
  </g>
</svg>
